# xmcd CD database file
#
# Track frame offsets:
#	150
#	12909
#	29934
#	43161
#	55033
#	69680
#	82719
#	97295
#	110101
#	120629
#	132279
#	146177
#	159017
#	170448
#	181515
#
# Disc length: 2667 seconds
#
# Revision: 0
# Processed by: cddbd v1.5.2PL0 Copyright (c) Steve Scherf et al.
# Submitted via: CDex 1.70beta2
#
DISCID=ce0a690f
DTITLE=Sonora Matancera - 30 Pegadistas de la Sonora Matancera
DYEAR=1900
DGENRE=Salsa
TTITLE0=Canonazo
TTITLE1=Mala Mujer
TTITLE2=Noche De Farra
TTITLE3=El Yerberito Moderno
TTITLE4=Por tu Voz
TTITLE5=Angustia
TTITLE6=Despedida
TTITLE7=El Amor De Mi Bohio
TTITLE8=Cuando Sali De Cuba
TTITLE9=Virgen De Media Noche
TTITLE10=Sonar
TTITLE11=Senora Bonita
TTITLE12=El Ano Viejo
TTITLE13=La Jaibera
TTITLE14=Que Tonta Eres
EXTD=
EXTT0=
EXTT1=
EXTT2=
EXTT3=
EXTT4=
EXTT5=
EXTT6=
EXTT7=
EXTT8=
EXTT9=
EXTT10=
EXTT11=
EXTT12=
EXTT13=
EXTT14=
PLAYORDER=
